<svg id="Icon_menu-alt-3" data-name="Icon/menu-alt-3" xmlns="http://www.w3.org/2000/svg" width="14.799" height="12.685" viewBox="0 0 14.799 12.685">
  <g id="Icon_3" transform="translate(0 0)">
    <path id="Path_13" data-name="Path 13" d="M356,41.057A1.057,1.057,0,0,1,357.057,40h12.685a1.057,1.057,0,1,1,0,2.114H357.057A1.057,1.057,0,0,1,356,41.057Z" transform="translate(-356 -40)" fill="rgba(14,14,14,0.3)" fill-rule="evenodd"/>
    <path id="Path_14" data-name="Path 14" d="M356,46.057A1.057,1.057,0,0,1,357.057,45h12.685a1.057,1.057,0,1,1,0,2.114H357.057A1.057,1.057,0,0,1,356,46.057Z" transform="translate(-356 -39.715)" fill="rgba(14,14,14,0.3)" fill-rule="evenodd"/>
    <path id="Path_15" data-name="Path 15" d="M362,51.057A1.057,1.057,0,0,1,363.057,50H369.4a1.057,1.057,0,1,1,0,2.114h-6.343A1.057,1.057,0,0,1,362,51.057Z" transform="translate(-355.657 -39.429)" fill="rgba(14,14,14,0.3)" fill-rule="evenodd"/>
  </g>
</svg>
